<svg xmlns="http://www.w3.org/2000/svg" xmlns:xlink="http://www.w3.org/1999/xlink" viewBox="0 0 512 512.04"><defs><style>.cls-1,.cls-6{fill:none;}.cls-2{fill:#e5670d;}.cls-3{fill:#f59e43;}.cls-4{fill:#fcc046;}.cls-5{fill:#a0874d;}.cls-6{stroke:#f59e43;stroke-miterlimit:10;stroke-width:12px;}.cls-7{fill:#fbde71;}.cls-8{fill:#6d6231;}.cls-9{fill:#e6ad72;}.cls-10{fill:#d4a06a;}.cls-11{clip-path:url(#clip-path);}</style><clipPath id="clip-path" transform="translate(0 0.04)"><rect class="cls-1" x="164.04" y="127.66" width="180" height="256.93" rx="49.86"/></clipPath></defs><g id="Layer_1" data-name="Layer 1"><circle class="cls-2" cx="256" cy="256.04" r="256"/><circle class="cls-2" cx="256" cy="256.04" r="256"/></g><g id="Layer_6" data-name="Layer 6"><path class="cls-3" d="M77.19,289.74c-10.4-10.33,30.17-66.52,42.33-62.6,8.65,2.79,12.22,38.95-12,55.6C98.33,289.1,82.11,294.64,77.19,289.74Z" transform="translate(0 0.04)"/><path class="cls-3" d="M418.64,208.56c3.62-8.44,26.54-8.62,43.21-1.25,20.72,9.16,36.61,32.13,31.45,40.51s-31.89,3-49.88-8.2C431.26,232.1,415,217,418.64,208.56Z" transform="translate(0 0.04)"/><path class="cls-4" d="M393.88,209c-11-1.64-19.24-28.84-14-51.16,5.47-23.35,26.41-44.67,37.14-40.93,11.36,4,12.17,36.31,3.41,59.88C415.78,189.21,404.28,210.5,393.88,209Z" transform="translate(0 0.04)"/><path class="cls-4" d="M392,304.83c-2.84-12.63,33.95-43.12,62.15-31.83,13.42,5.38,25.47,20.47,22.35,30.69-4.47,14.67-39.22,16.48-61.76,11.75C404.16,313.23,393.37,311,392,304.83Z" transform="translate(0 0.04)"/><path class="cls-4" d="M154.33,141.14c-8,1.82-26.39-23.24-23.57-50.25,2-19.32,14.88-39.44,22.23-37.8C166.86,56.18,167.63,138.09,154.33,141.14Z" transform="translate(0 0.04)"/><path class="cls-3" d="M284.62,136.07c-14.79-1-31-36.2-22.74-65.68,7.5-26.62,35-48.59,48.51-42.95,15.28,6.39,14,48.84.76,78.32C307.82,113.15,297.13,136.89,284.62,136.07Z" transform="translate(0 0.04)"/><path class="cls-4" d="M123,330c-.14-7.52-22.14-14.83-40.28-12.76-5,.57-22.77,2.6-27.92,14.76-.31.75-3.54,8.62,0,13.56C64.78,359.51,123.21,342.36,123,330Z" transform="translate(0 0.04)"/><path class="cls-3" d="M75.29,158c-10.2-1.67-22.85-33.74-6.57-54.57,10.67-13.65,31.72-19.86,38.4-13.13C119.06,102.3,90.06,160.42,75.29,158Z" transform="translate(0 0.04)"/><path class="cls-3" d="M35,217.93c31.3,10.86,78.81-24.27,72.76-37.9-2.74-6.17-31.43-8.52-52.55,7.08C42.6,196.43,29.41,216,35,217.93Z" transform="translate(0 0.04)"/><path class="cls-3" d="M360.41,375.06c-1.55,13.09,63.2,45.06,89.94,21.22,6.26-5.58,13.31-16.79,9.6-24.75C449.75,349.66,362.15,360.37,360.41,375.06Z" transform="translate(0 0.04)"/><path class="cls-3" d="M337.31,94.48c4,13.41,79.34,9.65,82-4,1.52-7.83-20-23-42.75-21.62C354.5,70.19,335,86.89,337.31,94.48Z" transform="translate(0 0.04)"/><path class="cls-5" d="M17.13,272.24C22.79,288,41.47,299.48,48.58,295c6.23-4,4.69-21-3-31.83-6.87-9.67-20.6-17.26-26.91-12.89C13.25,254,14.69,265.48,17.13,272.24Z" transform="translate(0 0.04)"/><path class="cls-5" d="M61.17,379.86c3.23-11.29,38.25-18,60.25-2.65,12.76,8.89,23,26.47,17.89,34.87-6,9.87-31.93,5-48.2-2.66C78.1,403.31,58.44,389.4,61.17,379.86Z" transform="translate(0 0.04)"/><path class="cls-5" d="M218.94,92.12c-16.1,4-51.58-48.59-39.92-65.18,6.52-9.27,28.85-8.85,41.94,2,18.31,15.2,9.31,43.17,8.08,47C226.63,83.45,224.27,90.78,218.94,92.12Z" transform="translate(0 0.04)"/><path class="cls-5" d="M457.93,131.61c-5.73-1.6-23.11,17.92-17.81,36,4.44,15.19,23.29,23.93,28.42,20.08,3.51-2.63,6.39-1.41,1.2-32.16C467.81,144,460.07,132.21,457.93,131.61Z" transform="translate(0 0.04)"/><circle class="cls-6" cx="256" cy="256" r="250"/></g><g id="Layer_3" data-name="Layer 3"><path class="cls-7" d="M327.57,452.62H182.05c-25.9,0-77.34,0-58.2-39.4a72,72,0,0,0,7-31.49V216.16A123.92,123.92,0,0,1,254.81,92.24h0A123.92,123.92,0,0,1,378.73,216.16V381.71a74.09,74.09,0,0,0,6.83,31.51C404.06,452.62,353.47,452.62,327.57,452.62Z" transform="translate(0 0.04)"/><path class="cls-3" d="M161.84,180.54c-5-.83-16.87,18.74-14.65,37.89,1.23,10.57,5.82,13.16,5.05,23.75-.87,12-7.14,13.27-7.58,24.25-.49,12.29,7.25,13.2,8.09,26.78.87,14.23-7.32,18.1-4,29.31,2.64,9,8.4,8,10.1,16.16,2.35,11.31-8.2,15.62-7.58,30.32.43,10.07,5.48,10.47,4,17.68-2,10-12.22,11.48-15.66,24.26-.85,3.17-2,7.36,0,11.11,4,7.51,18.31,9.4,27.79,5.06,8.72-4,11.77-12.59,17.68-28.8,19.45-53.35,19.36-50.82,19.71-54.07,2-18.56-3.89-35.28-15.66-68.71C178.59,245.6,173.58,242.6,168.92,220,163.9,195.6,166,181.22,161.84,180.54Z" transform="translate(0 0.04)"/><path class="cls-3" d="M348.32,180.54c5-.83,16.87,18.74,14.65,37.89-1.23,10.57-5.83,13.16-5.05,23.75.87,12,7.14,13.27,7.57,24.25.5,12.29-7.24,13.2-8.08,26.78-.88,14.23,7.32,18.1,4,29.31-2.64,9-8.4,8-10.1,16.16C349,350,359.55,354.3,358.93,369c-.43,10.07-5.49,10.47-4.05,17.68,2,10,12.23,11.48,15.67,24.26.85,3.17,2,7.36,0,11.11-4,7.51-18.32,9.4-27.79,5.06-8.72-4-11.78-12.59-17.69-28.8-19.44-53.35-19.35-50.82-19.7-54.07-2-18.56,3.89-35.28,15.66-68.71,10.54-29.93,15.55-32.93,20.21-55.58C346.26,195.6,344.15,181.22,348.32,180.54Z" transform="translate(0 0.04)"/></g><g id="Layer_5" data-name="Layer 5"><path class="cls-8" d="M93.87,454.12a256,256,0,0,0,324.26,0c-37.67-27.21-96.28-44.7-162.13-44.7S131.54,426.91,93.87,454.12Z" transform="translate(0 0.04)"/></g><g id="Layer_2" data-name="Layer 2"><rect class="cls-9" x="164.04" y="127.7" width="180" height="256.93" rx="49.86"/><circle class="cls-9" cx="167.96" cy="271.95" r="16.04"/><circle class="cls-10" cx="344.04" cy="272.21" r="16.04"/><g class="cls-11"><rect class="cls-10" x="254.04" y="103.7" width="94.49" height="281.18"/></g></g><g id="Layer_4" data-name="Layer 4"><path class="cls-7" d="M254.81,126.35c-8.74,15.47,12.48,45.35,33,60.63,18.35,13.69,53.08,28.31,68.21,13.64,13.46-13.05,6.73-44.73-8.72-62.9C321.49,107.38,265.4,107.6,254.81,126.35Z" transform="translate(0 0.04)"/><path class="cls-7" d="M255.57,123.76c8.74,15.47-12.48,45.35-33,60.63-18.35,13.69-53.08,28.32-68.21,13.64-13.46-13.05-6.73-44.73,8.71-62.9C188.89,104.79,245,105,255.57,123.76Z" transform="translate(0 0.04)"/></g></svg>