<svg xmlns="http://www.w3.org/2000/svg" viewBox="0 0 540.62 519.12"><defs><style>.cls-1{fill:#7fc6c9;}.cls-2{fill:#4497c7;}.cls-3{fill:#5dbdc7;}.cls-4{fill:#dab185;}.cls-5{fill:#1781b0;}.cls-6{fill:#ce9a79;}.cls-7{fill:#645c9b;}.cls-8{fill:#a6669d;}.cls-9{fill:#fff;}</style></defs><g id="Layer_1" data-name="Layer 1"><circle class="cls-1" cx="265.28" cy="256" r="256"/><path class="cls-2" d="M85.8,273c36.13-17.8,64.83-5,74.27-22.74,11-20.71-6.29-40,3.91-56.08,12.45-19.62,50.39,6.92,106.75-20.46,8.83-4.3,26.07-12.67,37.89-31.08,19.14-29.8,3.8-54.32,18.95-65.93,21.91-16.81,63.91,26.88,98.52,8.33a36.35,36.35,0,0,0,11.44-9.54A255.21,255.21,0,0,0,256,0C114.62,0,0,114.62,0,256A255.09,255.09,0,0,0,21.68,359.21C29,325.09,51.64,289.83,85.8,273Z" transform="translate(9.28)"/><path class="cls-3" d="M255.41,512c141.39,0,256-114.62,256-256a255,255,0,0,0-66-171.55c-7.39,1.54-38,49.1-70.61,38.74-50-13.39-39.09,128.26-69.81,147.54-36.82,23.11-82.79-20.65-111.41,3-24.88,20.59,3.87,58.66-20.46,97.77C147.93,412,92.93,410,66,428.25A255.35,255.35,0,0,0,255.41,512Z" transform="translate(9.28)"/><path class="cls-4" d="M256,512c141.38,0,256-114.62,256-256a254.88,254.88,0,0,0-50.63-152.86c-22.47,10.5-42.4,31.55-50.43,53.9-9.89,27.52,5.28,37.46-2.28,77.31-2.76,14.58-10.88,57.41-40.92,76.54-41.94,26.71-86.41-18.35-119,5.31-33.51,24.34.7,81.32-34.11,121.26-26.33,30.22-72.32,27.93-104,29.24A254.78,254.78,0,0,0,256,512Z" transform="translate(9.28)"/><path class="cls-5" d="M0,241.26c21.86,8,55.19,15.58,79.24,0C119.5,215.07,92.11,151,128.5,129.05c32.65-19.65,65.24,25.64,120.51,9.86,7.92-2.27,9.34-46.42,32.33-59.55,25.58-14.62,2.2-18.09,14-48.38,6.06-15.54,47.18-9.41,27.13-22.12A256,256,0,0,0,255.57,0C119.13,0,7.64,106.74,0,241.26Z" transform="translate(9.28)"/></g><g id="Layer_6" data-name="Layer 6"><path class="cls-6" d="M139.06,483.77c1.14-4.74,28.25,5,61.69-4.12,11.18-3,27.84-7.6,40.42-21.72,10.81-12.14,7.18-18.52,22.44-56.28,11.53-28.5,17.68-35,22-38.71,13.07-11.31,28.17-14,34.86-15.16,19.26-3.24,23.24,3.22,48,3.54,18.07.23,37.13.47,53.06-11.63,15.75-12,20.95-30.3,23.24-38.4,4.57-16.13,0-18.27,4-38.9,4.64-23.83,11.12-23.1,14.15-42.95,3.5-23-4.61-27.85,1.51-46.48,1.29-3.92,9.15-26.5,22.67-27.09,8.26-.36,17.11,7.55,16.24,12.44-.94,5.24-12.41,3.27-18.69,11.11s-1.67,17.8,0,32.34c1.74,15.25-2,14.63-7.58,54.57-5.27,37.87-1.71,37.22-6.57,52.54-3.37,10.6-9.41,28.86-26.28,44.47a91.25,91.25,0,0,1-41.93,21.72c-16.53,3.53-21.81-.5-65.18,0-19.69.23-22.2,1.1-24.25,2-15.82,7.1-23.48,25.75-33.86,51-6.74,16.42-5.92,18.84-11.38,26.39-10.52,14.56-25.13,21.6-30.55,24.13-2.69,1.26-9.88,3.37-24.26,7.58-19.54,5.73-27.77,7.58-37.39,8.59-10.62,1.12-15.91.47-20.71-1C147.7,491.62,138.37,486.61,139.06,483.77Z" transform="translate(9.28)"/><path class="cls-6" d="M180,507.44c.48-4.59,20.32-4.71,58.11-10.1,48.08-6.87,56.31-12.43,61.13-19.2,5.67-8,1.83-10.81,10.11-31.83,7-17.73,10.49-26.64,19.2-32.34,3.57-2.34,6.25-3,42.44-4.55,19.1-.83,25.78-1,35.87-4,8-2.43,15.6-4.84,22.24-11.62,4.46-4.56,4.84-7.38,12.12-16.68,5.89-7.51,7.83-8.47,11.62-13.13,10.68-13.14,6.48-19.33,16.68-37.9,6.83-12.44,9.71-11.45,15.16-23.74,3.66-8.26,2.61-9.28,7.57-20.72,4.34-10,4.46-7.66,11.12-21.73,3.14-6.64,4.27-9.59,7.86-12.67,1.54-1.31,6.22-5.2,12.86-5,2.68.08,6.25.18,7.07,2,1.88,4.24-14.07,10.36-23.24,27.79-2.24,4.26-3.35,7.89-5.56,15.16-2.6,8.55-2.45,10.9-6.06,26.27-3,12.59-4.5,17.1-5.06,18.7-1.82,5.24-3.44,8.83-6.06,14.65-5.35,11.88-7.57,14.52-8.59,15.66-3.38,3.78-4.06,2.79-9.6,7.58s-6.78,7.47-15.16,17.18c0,0-3.85,4.47-9.6,10.61-10.45,11.17-32.35,22.63-57.09,25.26-25.09,2.67-33.81-5.8-46.49,3-9.12,6.36-13.83,17.18-15.15,20.22-5.67,13-2.49,20.11-9.31,30.67-.86,1.33-4,6-14.44,13.28-10.95,7.65-22.85,13.28-39.92,18.7-26,8.26-42.24,13.18-61.64,8.08C191.48,515.27,179.66,511.05,180,507.44Z" transform="translate(9.28)"/></g><g id="Layer_4" data-name="Layer 4"><path class="cls-7" d="M292.45,393.51c9.22-5.18,17.94-36.36,28.8-34.21,15.14,3-9.76,23.67,4.93,47.34,4.55,7.33,41.09-.64,38.9,15-1.51,10.87-31.06,7.17-35.87,13.77-7.45,10.23,0,45.34-9.6,46s-8.72-32.5-24.59-37.21c-18.06-5.36-34.15,24.23-41.85,11.57C249.25,449.34,271,432.92,272,424c2.42-21.44-21.93-28.42-16-37.14C262.44,377.35,285.7,397.3,292.45,393.51Z" transform="translate(9.28)"/><path class="cls-8" d="M301.29,414.36a5.86,5.86,0,1,0,9.23.89A6.13,6.13,0,0,0,301.29,414.36Z" transform="translate(9.28)"/><path class="cls-8" d="M284.53,417.4a5.56,5.56,0,0,0,1.51,6.94,5.83,5.83,0,0,0,5.31.51c2.66-1.09,4.69-4.35,3.66-7.08-1-2.54-4-3.11-4.29-3.15A5.88,5.88,0,0,0,284.53,417.4Z" transform="translate(9.28)"/><path class="cls-8" d="M292.58,405.9a4,4,0,0,0-.13,4.55c1.45,2.22,4.46,1.68,4.68,1.64,2.23-.44,4.41-2.55,4-4.42-.31-1.56-2.26-2.28-2.91-2.53C297.77,405,294.28,403.73,292.58,405.9Z" transform="translate(9.28)"/><path class="cls-8" d="M297.16,426.81a2.57,2.57,0,0,0-1,3.31c.67,1.22,2.35,1.3,3.41.85a2.57,2.57,0,0,0,1.7-2.27C301.1,427.23,298.71,425.92,297.16,426.81Z" transform="translate(9.28)"/><path class="cls-8" d="M314.31,424.91a3.21,3.21,0,0,0-1.52,3.74c.74,1.77,4,2.21,5.64.81,1.15-1,1.68-2.93.94-3.89-.48-.62-1.38-.69-2.93-.8A4,4,0,0,0,314.31,424.91Z" transform="translate(9.28)"/><path class="cls-8" d="M309.71,405.87c-1,2.06-1.52,3.1-1.28,3.69.48,1.19,2.86,1.82,4.6.95,1.56-.78,2.75-2.87,1.94-4.55a3.39,3.39,0,0,0-4.41-1.42C310.38,404.67,310.22,404.83,309.71,405.87Z" transform="translate(9.28)"/><path class="cls-8" d="M289,428.42c-.7,1.3,0,3.24.85,3.41s1.71-1.08,2-2.18c.19-.73.26-2.08-.47-2.47S289.48,427.53,289,428.42Z" transform="translate(9.28)"/><path class="cls-8" d="M284.94,411a2.14,2.14,0,0,0,.75,1.66,2.56,2.56,0,0,0,3.56-1.18,2.51,2.51,0,0,0-1.57-3.23C286.34,408,284.93,409.6,284.94,411Z" transform="translate(9.28)"/><path class="cls-8" d="M302,400c-.16.88-.08,2.7,1.28,3.36a2.23,2.23,0,0,0,2.56-.33c.74-.91.07-2.5-.81-3.27s-2.1-1.06-2.7-.52A1.3,1.3,0,0,0,302,400Z" transform="translate(9.28)"/></g><g id="Layer_5" data-name="Layer 5"><path class="cls-9" d="M99.76,267.39c.28,3,44,3.6,62.2-14.32,7.95-7.81,5.16-13.31,4.43-25.54s-7-19.32-2.78-28.05c2.66-5.48,7.76-8,10.86-9.6,15.52-7.78,25.06,3.05,49.52-1.26,4.43-.78,9.83-2.31,20.64-5.37,9.57-2.71,18.38-5.21,18.22-6-.23-1.11-17.64,5.23-41.64,4.8-16.85-.3-34.7-3.89-54.57.26-2.86.59-8,1.81-10.61,6.06-3.25,5.22.55,10.8,2.28,19.2,3.25,15.81-1.86,35.23-12.83,42.88-1,.7-4.38,5.9-13.45,9.1-6.61,2.33-9.88,1.82-18.76,3.6C105.3,264.74,99.72,266.92,99.76,267.39Z" transform="translate(9.28)"/><path class="cls-9" d="M306.33,146c-.41-.28,14.47-16,15.18-34.9.27-7.41-1.11-9.35,1.51-18.47,1.51-5.25,2.9-10.06,7-13.07,5.79-4.24,15.37-1.88,34.3,3,10.26,2.66,12.07,3.76,20.46,5.3a91.31,91.31,0,0,0,20.46,1.82c8.91-.33,16.64-2.14,16.58-2.7s-10.7,1.6-25.1-.44a96.16,96.16,0,0,1-24.82-7.2c-14-6.17-14.3-10.27-25.77-13.27-10.26-2.67-17.25-1.28-20.09-.56-4.37,1.1-5.07,9-8,14.4-.54,1-8.38,3-6.8,17.62.9,8.29,2.65,5.81,3.39,9.09,1.08,4.76,2,7.07,2.28,11.75.05.91-.54,3.06-1.33,7.29C313.56,136.77,306.64,146.2,306.33,146Z" transform="translate(9.28)"/><path class="cls-9" d="M24.5,365.42c5.43.37,6.33-23,21.51-50,12.83-22.76,26.68-31.79,25.1-33.61C69,279.41,43,293.9,27.44,319.23c-10.11,16.5-9.6,27.52-8.86,32.65C18.72,352.8,20.59,365.15,24.5,365.42Z" transform="translate(9.28)"/><path class="cls-9" d="M-9.13,245c1.55,6.49,15,8.21,27.86,9.85,16.48,2.1,26.55,3.39,39.6-.95a68.43,68.43,0,0,0,27.88-18.15c9.88-10.65,14-22.08,13.45-22.45-.78-.47-7.67,19.13-26,27.72-9.48,4.44-19.21,4.61-26.14,4.74a76,76,0,0,1-25.2-3.23c-14-4.39-18.76-10.82-25-8.14C-6.8,236.11-10,241.17-9.13,245Z" transform="translate(9.28)"/><path class="cls-9" d="M105.61,181.24c-1,0-2.61-13.09-.1-28.56,1.9-11.74,3.61-22.33,12.5-29.93,1.63-1.39,9.18-7.85,18.76-7.39,2.38.11,6.64,1.4,15.16,4,7.48,2.26,8.36,2.91,11.55,3,5.69.21,7.45-1.66,11.18-.19,2.2.86,2,1.69,7,6.06a55.75,55.75,0,0,0,8.34,6.44,43.31,43.31,0,0,0,11.06,4.47,71.66,71.66,0,0,0,12.47,2.47c7.35.88,10.75.38,10.77.69.06.77-20.93,9-36.19.14-6.35-3.66-8.07-8.17-17.06-11.18A49.71,49.71,0,0,0,157.23,129,56.16,56.16,0,0,0,144,130.14c-6.82,1.39-7.1,3.43-12.7,4.17s-9,3.6-11.36,4.16c-4.37,1.06-7.84,8.74-9.32,15.33C105.63,175.8,106.44,181.26,105.61,181.24Z" transform="translate(9.28)"/><path class="cls-9" d="M259.34,113.77c.63.29,3.27-13.66,14-22.29C282.77,84,290.16,87,296.68,78.6c4.43-5.72,5-12.32,5.31-15.16,1.26-13.48-6.6-17.93-3.41-26.52,2-5.45,7.58-10.16,13.07-11.75,4.89-1.41,8.16.1,15-2.65,5-2,6-4,6.25-4.55,1.65-3.68-.83-8.22-3.22-10.61-2.87-2.89-7.73-4.8-9.47-3.22-1.54,1.39.87,4.12-.38,7.39-.57,1.48-2.17,3.81-14,7-10.64,2.87-12.6,1.87-15.35,4.54-4.22,4.11-4.18,10.9-4.17,13.08,0,4.58,1.47,5.41,2.09,13.07.33,4.11.47,6.21-.38,8.72a16.72,16.72,0,0,1-6.82,8.33C276.8,69,274.72,67.52,268.64,71a15.5,15.5,0,0,0-4.55,3.6,14.31,14.31,0,0,0-3,7.2c-.47,4,1.15,5.14,1.52,11.56a42.27,42.27,0,0,1,0,4.55C262.18,107.1,258.88,113.57,259.34,113.77Z" transform="translate(9.28)"/><path class="cls-9" d="M62.31,433.67c6.64,1.5,11.27-5.47,18.94-9.6,10.47-5.62,19.13-1.92,30.07-1.76,38.26.54,66.91-42.81,68.46-45.23,5.62-8.75,11.7-18.2,11.11-30.56-.38-8.2-3.38-11-5-25a83.24,83.24,0,0,1-.25-22.49c1.45-10.44,3.09-22.31,11.55-27.8,2.8-1.81,11.19-1.65,27.86-1.25,13.52.32,20.36.51,24.27,1.68A166,166,0,0,0,267,276.4c3.24.66,6.21,1.27,6.28,1,.19-.69-22.11-7.43-44.7-12.76-16.17-3.81-22.17-4.46-29.31-3.79-7.64.73-18.33,1.75-24,9.35-2.61,3.5-2.7,11.31-2.78,26.78,0,11.33-.09,18.26.51,28.29.47,8,.93,10.92.5,16.93a64.67,64.67,0,0,1-3.53,18.19,50.52,50.52,0,0,1-8.34,15.41,29.39,29.39,0,0,1-7.33,7.07c-2,1.3-2.62,1.29-8.33,4.3-3.15,1.66-4.73,2.49-6.32,3.54-3.22,2.12-3.82,3.16-7.07,5.81a48.29,48.29,0,0,1-10.36,6.82,52.45,52.45,0,0,1-10.36,3.28c-2.28.57-4.92,1.06-10.1,2-7.45,1.38-7.39,1.26-11.12,2-8.21,1.68-11.16,2.8-12.38,3.29a52.73,52.73,0,0,0-6.31,3c-3.91,2.19-4,2.88-8.59,5.81-5.38,3.45-7.2,3.76-7.33,5.31C55.81,430.26,59,432.93,62.31,433.67Z" transform="translate(9.28)"/><path class="cls-9" d="M293.78,275.76c.74,1.74,10.68-.31,18.88-4,6.19-2.81,13.79-6.25,17.43-14.15,2.41-5.2,2.09-10.15,1.77-15.16-.56-8.8-3.17-9.53-3.53-18.44a53.28,53.28,0,0,1,1.51-14.65c1.17-4.57,2.11-5.5,3.54-11.12,1.27-5,1-6.15,2-11.62,1.36-7.34,2.21-7.29,4.8-17.68,1.74-7,1.48-7.49,3.54-15.41,1.78-6.89,2.95-10.26,5.3-13.9a26.73,26.73,0,0,1,5.31-6.32c5.06-4.31,10.64-5.44,14.9-6.31a57.41,57.41,0,0,1,9.1-1c3.86-.18,3.91.14,7.32,0,4.22-.17,8.57-.39,13.14-2.53,3.14-1.47,6.65-4,6.28-4.86-.44-1-6,1.29-16.38,1.83a51.28,51.28,0,0,1-7.84,0c-6.89-.6-9.11-2.41-15.91-3.28-4.42-.57-6.62-.85-9.35-.26-9.44,2.07-14.62,12.34-16.67,16.42-2.86,5.67-3.59,9.86-5.31,19-6,31.62-6.57,30.62-8.34,44.21-1.8,13.86-.66,11-2.27,22.49-3.22,23.15-5,35.09-13.89,44.71C301.72,271.7,293.09,274.11,293.78,275.76Z" transform="translate(9.28)"/><path class="cls-9" d="M110.59,466.7c11.33-.07,15.89.79,25.74,1.33,19,1.05,31.95,1.76,47.24-1.51,11.28-2.42,22.82-4.89,33.09-14.66a57.57,57.57,0,0,0,14.66-24c1-3.25,1.8-9.29,3.28-21.22,1.68-13.51,2.52-20.26,2.78-25.51.8-16.26-1.23-18.8,1-29.31,1.54-7.24,2.73-12.8,7.33-17.94,5.6-6.26,12.9-8.11,22.73-10.61a102.79,102.79,0,0,1,20.47-2.78c7.33-.44,9.63-.08,22.73,0,10.75.07,24.44.15,24.51-.83s-14.7.91-31.33-6.74c-8.29-3.82-12.14-7.76-21.72-9.1a57.1,57.1,0,0,0-13.65,0,84.87,84.87,0,0,0-19.2,4.3c-7.36,2.5-11,3.76-14.4,6.31-10.5,8-12.42,21.17-12.63,22.74-.73,5.61.7,5.86,2,23,.4,5.1.55,8.69.76,13.64.7,16.45,1,24.86-.76,33.6-1.09,5.41-2.07,10-5.3,15.16-2.11,3.36-5.23,6.24-11.37,11.87-7.27,6.67-10.91,10-14.65,12.13-5.39,3.06-10,4.31-17.44,6.31a145,145,0,0,1-14.4,3c-9.17,1.53-11.71,1.36-29.3,3.28A171.29,171.29,0,0,0,113.84,462c-4.91,1-14,3.26-13.89,4.29C100.06,467,104.77,466.73,110.59,466.7Z" transform="translate(9.28)"/><path class="cls-9" d="M465.51,99.44c-2.31-.4-7.46-.79-20.09,7A107.09,107.09,0,0,0,425.72,122c-6.6,6.69-13.86,14.06-18.38,25.77-3.15,8.14-3.6,14.83-4,21.22-1.14,19.17,4.25,25.24,4,44.9-.1,7.32-.93,12.24-2.47,21.41-4.93,29.46-14.48,50-13.67,50.31.55.21,4.85-9.38,7.79-16.09,11.42-26,17.13-39.28,17.25-49.37.12-9.81-2.38-8.53-3.79-27.1-.92-12.14-1.49-19.63.19-29.18,1.35-7.63,4.19-23.78,17.05-36,9.82-9.31,22.14-13.19,26-14.4,11.79-3.71,20.31-3.06,20.84-6.25C477,104.46,471.19,100.42,465.51,99.44Z" transform="translate(9.28)"/></g></svg>