<svg xmlns="http://www.w3.org/2000/svg" xmlns:xlink="http://www.w3.org/1999/xlink" viewBox="0 0 512 512"><defs><style>.cls-1{fill:none;}.cls-2{fill:#248786;}.cls-3{fill:#315955;}.cls-4{fill:#9fc2b6;}.cls-5{fill:#c97457;}.cls-6{fill:#2a416a;}.cls-7{fill:#e6ad72;}.cls-8{fill:#d4a06a;}.cls-9{clip-path:url(#clip-path);}</style><clipPath id="clip-path" transform="translate(-1.26)"><rect class="cls-1" x="164.04" y="124.83" width="180" height="256.93" rx="49.86"/></clipPath></defs><g id="Layer_2" data-name="Layer 2"><circle class="cls-2" cx="256" cy="256" r="256"/></g><g id="Layer_8" data-name="Layer 8"><rect class="cls-3" x="88.33" y="298.01" width="127.33" height="44.72" rx="13.72"/><rect class="cls-3" x="283.11" y="183.8" width="148.55" height="41.35" rx="13.72"/><rect class="cls-3" x="314.94" y="327.57" width="123.54" height="41.68" rx="13.72"/><rect class="cls-3" x="381.63" y="256" width="101.56" height="42.01" rx="13.72"/><rect class="cls-3" x="27.69" y="170.68" width="87.92" height="39.41" rx="13.72"/><rect class="cls-3" x="283.11" y="76.71" width="98.53" height="31.07" rx="13.72"/><rect class="cls-3" x="27.69" y="242.68" width="80.34" height="34.32" rx="13.72"/><rect class="cls-3" x="71.65" y="369.25" width="95.05" height="29.44" rx="13.72"/><rect class="cls-3" x="73.17" y="147.19" width="84.88" height="40.73" rx="13.72"/><rect class="cls-3" x="166.7" y="33.35" width="116.41" height="27.43" rx="13.72"/></g><g id="Layer_9" data-name="Layer 9"><rect class="cls-4" x="58.77" y="225.15" width="98.66" height="30.85" rx="13.83"/><rect class="cls-4" x="278.74" y="83.91" width="85.55" height="30.69" rx="13.83"/><rect class="cls-4" x="329.77" y="188.5" width="79.64" height="43.19" rx="13.83"/><rect class="cls-4" x="347.27" y="353.34" width="101.82" height="36.38" rx="13.83"/><rect class="cls-4" x="49.48" y="327.57" width="97.2" height="37.14" rx="13.83"/><rect class="cls-4" x="75.44" y="121.04" width="97.01" height="38.27" rx="13.83"/><rect class="cls-4" x="176.86" y="23.46" width="85.55" height="30.69" rx="13.83"/><rect class="cls-4" x="49.48" y="169.33" width="68.5" height="27.66" rx="13.83"/><rect class="cls-4" x="409.27" y="253.54" width="73.92" height="31.09" rx="13.83"/></g><g id="Layer_6" data-name="Layer 6"><path class="cls-3" d="M257.26,512A254.83,254.83,0,0,0,405.8,464.52c-26.49-38.86-84.48-65.83-151.76-65.83-65.48,0-122.16,25.54-149.57,62.73A254.87,254.87,0,0,0,257.26,512Z" transform="translate(-1.26)"/></g><g id="Layer_7" data-name="Layer 7"><path class="cls-5" d="M178.12,390.83l1,68.41a8.93,8.93,0,0,0,14.2,7.08l58.83-43.05a8.94,8.94,0,0,1,10.83.22l51.56,41A8.92,8.92,0,0,0,329,458l3.14-64.14a8.92,8.92,0,0,0-13.21-8.26l-57,31.32a8.94,8.94,0,0,1-8.6,0l-62-34A8.93,8.93,0,0,0,178.12,390.83Z" transform="translate(-1.26)"/><circle class="cls-5" cx="256" cy="421.43" r="22.74"/></g><g id="Layer_4" data-name="Layer 4"><path class="cls-6" d="M170.56,143.88c-8.66-4.2-21.84,1.38-28,9.43-10.61,13.89-.35,35.18,4.3,44.82,1.13,2.35,14,29.06,23.69,26.9C185,221.79,191.63,154.09,170.56,143.88Z" transform="translate(-1.26)"/></g><g id="Layer_5" data-name="Layer 5"><rect class="cls-7" x="162.77" y="124.83" width="180" height="256.93" rx="49.86"/><circle class="cls-7" cx="166.7" cy="269.08" r="16.04"/><circle class="cls-8" cx="342.77" cy="269.34" r="16.04"/><g class="cls-9"><rect class="cls-8" x="252.77" y="100.83" width="94.49" height="281.18"/></g></g><g id="Layer_3" data-name="Layer 3"><path class="cls-6" d="M320.29,105.28c-12.88-15.75-32.4-25.37-60.39-33.12C229.8,63.82,247.44,49,247.42,38.05c0-16.2-94.63,9.74-95.11,74.28-.12,15.21,3.29,28.2,19.89,40.16,25,18,59.29-3.27,95.76,2.72,60.42,9.92,65.67.06,69.23-3.68C339.41,149.2,343.16,133.27,320.29,105.28Z" transform="translate(-1.26)"/><path class="cls-6" d="M333.2,155.44a8.92,8.92,0,0,1,8.61-5.88c5.43.15,13.24,1.53,19.56,7.29,9.41,8.6,10.57,21.26,8.78,29.85-7.91,38-26.18,50.42-26.11,46.38.15-10-8.63-38.71-11.05-49.51C330.25,171.36,331.83,159.2,333.2,155.44Z" transform="translate(-1.26)"/></g></svg>