<svg xmlns="http://www.w3.org/2000/svg" xmlns:xlink="http://www.w3.org/1999/xlink" viewBox="0 0 592.75 546.92"><defs><style>.cls-1{fill:none;}.cls-2{clip-path:url(#clip-path);}.cls-3{fill:#e0cfbc;}.cls-4{fill:#cbbcab;}.cls-5{fill:#963c2c;}.cls-6{fill:#7f3324;}.cls-7{clip-path:url(#clip-path-2);}.cls-8{fill:#e8bd77;}.cls-9{fill:#d8b06f;}.cls-10{fill:#494244;}.cls-11{clip-path:url(#clip-path-4);}.cls-12{fill:#fff;}.cls-13{clip-path:url(#clip-path-5);}</style><clipPath id="clip-path" transform="translate(46.07 0)"><circle class="cls-1" cx="256" cy="256" r="256"/></clipPath><clipPath id="clip-path-2" transform="translate(46.07 0)"><ellipse class="cls-1" cx="312.78" cy="85.13" rx="61.26" ry="76.23" transform="matrix(0.28, -0.96, 0.96, 0.28, 143.48, 361.57)"/></clipPath><clipPath id="clip-path-4" transform="translate(46.07 0)"><path class="cls-1" d="M255.69,512l97.08-98.09c-28-15.78-62.1-24.31-97.08-24.31-33.7,0-66.58,7.92-94.05,22.65Z"/></clipPath><clipPath id="clip-path-5" transform="translate(46.07 0)"><rect class="cls-1" x="166" y="97.67" width="180" height="256.93" rx="49.86"/></clipPath></defs><g id="Layer_2" data-name="Layer 2"><g class="cls-2"><circle class="cls-3" cx="302.07" cy="256" r="256"/><path class="cls-4" d="M466.26,229.8c-69.88-4.29-154.6,19.6-155.37,47-.6,21.68,51.47,44.45,93.23,46.61,36.84,1.9,64.33-12.31,94.73-28,23.41-12.11,49.44-25.57,47.75-38.65C544.36,239.37,494.6,231.54,466.26,229.8Z" transform="translate(46.07 0)"/><path class="cls-4" d="M4,262.39c36.87,20.22,32.18,54.66,59.11,64.42,26.07,9.45,62.63-11.15,81.86-35.62,34.07-43.37,5.37-88.3,32.59-113.68,38.81-36.2,136.16,18.79,137.93,14.4C317.92,185.76,130,72.85,66.85,129.76,34.59,158.85,47.58,220.94,3.19,240.41c-22.34,9.8-49.07,4.35-49.26,7.58S-20.51,249,4,262.39Z" transform="translate(46.07 0)"/><path class="cls-4" d="M89.21,369.25c24,12.55,28.77,25.93,43.58,28.8,8.73,1.69,7.69-2.84,30.69-6.82,20.39-3.53,34.65-6,43.58,2.28,9.41,8.7,7.17,24,6.82,26.14-2.32,14.47-14.34,27.48-27.66,29.94-11.84,2.18-25.32-6-52.29-22.36-15.91-9.65-24-16.17-33.35-13.26-7.92,2.47-8.88,9.33-17.81,11-8.31,1.54-17.08-2.61-22.36-8.34-9.77-10.61-6.19-25.18-5.3-28.8a33.27,33.27,0,0,1,7.57-14.4c2-2.19,5.42-5.87,10.61-7.2C79.79,364.56,85.74,367.44,89.21,369.25Z" transform="translate(46.07 0)"/><path class="cls-4" d="M278.05,420.54c1.73-8.69,8.54-37.67,30.32-46.49,12.05-4.88,25.65-2.35,46.48,1.52,24.22,4.5,23.7,8.95,32.84,7.07,12-2.47,15.32-10.66,45-29.3,6.25-3.93,10.59-6.38,15.16-5.06,8.13,2.36,13.39,15.6,11.62,26.28-3,18-25.62,27-33.85,30.31a84.87,84.87,0,0,1-16.67,4.55c-9.82,1.74-26.38,3.22-47.5-2" transform="translate(46.07 0)"/><path class="cls-4" d="M462.65,139.36c-3-9.63-16.37-48.81-56.08-69.72C377.68,54.42,327,44.73,294.4,75.7c-18.89,18-32.19,50.1-21.72,73.77,14.23,32.18,73.06,50.16,136.92,20.71" transform="translate(46.07 0)"/></g></g><g id="Layer_4" data-name="Layer 4"><circle class="cls-5" cx="195.54" cy="308.87" r="65.94"/><ellipse class="cls-5" cx="164.21" cy="234.85" rx="72.51" ry="66.44"/><ellipse class="cls-5" cx="165.22" cy="150.35" rx="50.78" ry="52.42"/><ellipse class="cls-5" cx="206.5" cy="112.21" rx="54.98" ry="63.28"/><ellipse class="cls-5" cx="264.68" cy="71.72" rx="52.6" ry="48.7"/><circle class="cls-5" cx="250.28" cy="350.16" r="33.71"/><circle class="cls-6" cx="358.11" cy="354.47" r="32.46"/><ellipse class="cls-6" cx="421.14" cy="322.01" rx="53.31" ry="49.77"/><ellipse class="cls-6" cx="438.18" cy="242.18" rx="71.49" ry="66.69"/><ellipse class="cls-6" cx="427.25" cy="153.69" rx="65.73" ry="63.23"/><ellipse class="cls-6" cx="299.35" cy="84" rx="61.26" ry="63.01" transform="translate(180.98 347.86) rotate(-73.74)"/><g class="cls-7"><rect class="cls-5" x="268.42" y="29.95" width="34.28" height="73.64"/></g><ellipse class="cls-6" cx="357.38" cy="105.06" rx="57.51" ry="54.46" transform="translate(202.54 418.73) rotate(-73.74)"/></g><g id="Layer_1" data-name="Layer 1"><rect class="cls-8" x="212.07" y="97.93" width="180" height="256.93" rx="49.86"/><circle class="cls-8" cx="216" cy="242.18" r="16.04"/><circle class="cls-9" cx="392.07" cy="242.18" r="16.04"/><g class="cls-2"><path class="cls-10" d="M256,512l155.55,34.92A94.71,94.71,0,0,0,418.3,512c0-67.15-73.26-122.4-162.3-122.4S93.7,444.85,93.7,512a94.53,94.53,0,0,0,5.73,32.24Z" transform="translate(46.07 0)"/></g><g class="cls-11"><path class="cls-12" d="M177.88,379.82c1,1.51,46.49,66.69,46.49,66.69L325.93,368.7Z" transform="translate(46.07 0)"/><polygon class="cls-12" points="247.2 354.05 324 437.42 406.36 371.73 247.2 354.05"/></g><path class="cls-12" d="M236.12,612" transform="translate(46.07 0)"/><g class="cls-13"><rect class="cls-9" x="302.07" y="73.67" width="94.49" height="281.18"/></g></g><g id="Layer_3" data-name="Layer 3"><ellipse class="cls-5" cx="256.26" cy="94.77" rx="45.82" ry="41.43"/><ellipse class="cls-5" cx="206.5" cy="147.19" rx="42.44" ry="44.46"/><ellipse class="cls-6" cx="349.32" cy="94.77" rx="47.25" ry="41.43"/><ellipse class="cls-6" cx="403.45" cy="141.38" rx="41.94" ry="43.45"/></g></svg>