<svg xmlns="http://www.w3.org/2000/svg" xmlns:xlink="http://www.w3.org/1999/xlink" viewBox="0 0 512 608.75"><defs><style>.cls-1{fill:none;}.cls-2{fill:#dfa367;}.cls-3{fill:#d6642b;}.cls-4{fill:#3e3438;}.cls-5{fill:#e8bd77;}.cls-6{fill:#d8b06f;}.cls-7{clip-path:url(#clip-path);}.cls-8{clip-path:url(#clip-path-2);}.cls-9{fill:#9daac4;}</style><clipPath id="clip-path"><circle class="cls-1" cx="255.71" cy="256" r="256"/></clipPath><clipPath id="clip-path-2"><rect class="cls-1" x="166" y="97.67" width="180" height="256.93" rx="49.86"/></clipPath></defs><g id="Layer_1" data-name="Layer 1"><circle class="cls-2" cx="256" cy="256" r="256"/></g><g id="Layer_5" data-name="Layer 5"><path class="cls-3" d="M189.66,503.28c-25.5-12.68-43-34.82-77.95-35.85A254.57,254.57,0,0,0,189.66,503.28Z"/><path class="cls-3" d="M240.55,307.35c-63.07,12.7-80.83,35.89-157.25,39.92-19.18,1-43,2.27-66.34.33A255.92,255.92,0,0,0,54.62,414c14.49-12.45,32.72-23,54.45-25.79,60.47-7.8,75.78,53.71,136.42,50.78,58.76-2.85,67-61.71,128.08-68.21,32.86-3.5,68.19,9.52,95,28.07a255.29,255.29,0,0,0,28.79-57.09C444.25,334,357.66,283.78,240.55,307.35Z"/><path class="cls-3" d="M172,90.35c68-2.63,82.63,54.38,143.25,50,53.41-3.85,60.34-49.45,109.89-50a91.81,91.81,0,0,1,30.27,5A257.47,257.47,0,0,0,419.48,59,234.61,234.61,0,0,1,353.11,60c-69-9.24-90.65-48.69-144-36.38C169.17,32.87,161.56,59.54,122,60a100.09,100.09,0,0,1-26.48-3.38A257.38,257.38,0,0,0,43.9,112.71a148.8,148.8,0,0,0,28.79,4.16C122.21,119,125.66,92.13,172,90.35Z"/><path class="cls-3" d="M64.35,285.88c52.3,10.19,71.94-54.68,142.49-58.36,70.28-3.66,83.78,59,157.64,59.88,71.79.85,112.46-57.7,146-59.46a255.16,255.16,0,0,0-8.91-44.49c-17.68-3.53-41.56-7-71.95-3.67-66.13,7.22-70.32,36.44-119,35.62-67.74-1.14-80.8-58.09-141.73-53.81-50.81,3.56-57.54,44.29-107.62,40.92a108.26,108.26,0,0,1-51.24-17.6A255,255,0,0,0,1.48,229C15.93,252.85,33.69,279.91,64.35,285.88Z"/><path class="cls-3" d="M377.36,429.12C354.64,415,307.44,502.7,237.27,511.31q9.31.68,18.79.69a254.86,254.86,0,0,0,125.63-32.91C380,459.34,388.59,436.09,377.36,429.12Z"/></g><g id="Layer_3" data-name="Layer 3"><rect class="cls-4" x="126.22" y="53.59" width="259.57" height="242.15" rx="72.82"/></g><g id="Layer_2" data-name="Layer 2"><rect class="cls-5" x="166" y="97.93" width="180" height="256.93" rx="49.86"/><circle class="cls-5" cx="169.93" cy="242.18" r="16.04"/><circle class="cls-6" cx="346" cy="242.18" r="16.04"/><g class="cls-7"><path class="cls-4" d="M255.71,512l155.55,34.92A94.92,94.92,0,0,0,418,512c0-67.15-73.27-122.4-162.3-122.4S93.41,444.85,93.41,512a94.29,94.29,0,0,0,5.73,32.24Z"/></g><g class="cls-8"><rect class="cls-6" x="256" y="73.67" width="94.49" height="281.18"/></g></g><g id="Layer_6" data-name="Layer 6"><g class="cls-7"><polygon class="cls-9" points="278.31 407.9 226.01 408.66 249.64 459.44 219.95 592.83 304.07 608.75 257.14 459.44 278.31 407.9"/></g></g><g id="Layer_4" data-name="Layer 4"><rect class="cls-4" x="256" y="66.47" width="117.55" height="67.45" rx="31.58"/><rect class="cls-4" x="138.45" y="66.47" width="117.55" height="67.45" rx="31.58"/><path class="cls-4" d="M166,287.83c-2.08,3.78,38.55,41,63.29,29.89C244,311.09,245.77,290.6,256,290.94c9.51.31,10.07,18.1,23.06,25,24,12.77,68.39-23.53,66.31-27.81-1.49-3.05-24.48,14.9-52.66,7.34-19.4-5.2-21.13-17.16-36.71-17.17-13.57,0-20.65,14.38-40.35,19.2C189.24,304,167.51,285.08,166,287.83Z"/><path class="cls-4" d="M278.19,354.6c1.33-13.58-9.25-24.77-20.82-25.52-12.62-.81-25.58,10.83-24.15,25.77l22.46,30.32Z"/></g></svg>