<svg xmlns="http://www.w3.org/2000/svg" viewBox="0 0 512 512"><defs><style>.cls-1{fill:#565ba5;}.cls-2{fill:#fac48d;}.cls-3{fill:#fffacc;}.cls-4{fill:#9590c6;}.cls-5{fill:#7f6898;opacity:0.67;}.cls-6{fill:#f29ac1;}.cls-7{fill:#85c0c0;}.cls-8{fill:#fff594;}</style></defs><g id="Layer_7" data-name="Layer 7"><circle class="cls-1" cx="256" cy="256" r="256"/></g><g id="Layer_6" data-name="Layer 6"><path class="cls-2" d="M445.29,188.41c-3.9-.22-10.26-.65-16.29-4.93-8.55-6.06-10.68-15.76-12.13-22.36a50.84,50.84,0,0,1-1.12-15.83c-2-.28-3.78-.58-5.32-.84-8.79-1.48-17.22-2.9-25.77-9.48-15.68-12.06-17.6-30.59-17.81-33a46.33,46.33,0,0,1,1-14.39c-5,4.25-6.74,5.14-9.71,5.67-13.63,2.44-32.58-6.12-38.66-22.74-3.46-9.47-2.14-19.95,1.92-28.21A226.67,226.67,0,0,0,256,32.75C130.85,32.75,29.39,134.2,29.39,259.36S130.85,486,256,486,482.61,384.51,482.61,259.36a226.2,226.2,0,0,0-13.39-76.9A44.17,44.17,0,0,1,445.29,188.41ZM256,348.63a89.27,89.27,0,1,1,89.27-89.27A89.27,89.27,0,0,1,256,348.63Z"/></g><g id="Layer_5" data-name="Layer 5"><path class="cls-3" d="M321.51,27.06"/><path class="cls-4" d="M442,188a26.9,26.9,0,0,1-12.94-4.66c-8.54-6.07-10.67-15.76-12.12-22.36a50.76,50.76,0,0,1-1.13-15.83c-2-.28-3.78-.58-5.31-.84-8.79-1.48-17.22-2.9-25.77-9.48-15.69-12.06-17.61-30.59-17.81-33a46,46,0,0,1,1-14.38c-5,4.25-6.75,5.14-9.72,5.67-13.62,2.43-32.58-6.12-38.65-22.74a34.16,34.16,0,0,1-1.9-14.13A203.54,203.54,0,0,0,287,45.67c-35.31-8.64-35.74,22.5-65.71,19.39-24.3-2.53-39.34-26.21-55.71-8.34-9.85,10.76-19.55,12-25.38,14-34.49,12.13-19.27,29.69-34.87,47.75-21,24.28-25.49,19.7-40.54,40.26C49.8,179.16,37.68,187,46.17,237.86c7.73,46.32-5.17,51,2.42,72.09C58,336,68.87,332.8,88.23,366.32c12,20.86,7,31.84,14.07,48.45,22.41,52.61,168.42,73.74,203.82,50.46,15.49-10.19,43.58-27.29,43.58-27.29,7-15.38,26.94-11.42,33.73-21.22,10.91-15.76,6.12-32.5,12.88-35.62,27-12.45,23.06-3.07,38.66-12.89,14.69-9.25,29.5-28.14,35.62-67.45,7.33-47.1,3.42-72.55-9.86-91.7C452.3,196.89,446.36,193.84,442,188ZM346.06,298.52c-2.86,7.61-22.37,10-24.75,15.72-6.75,16.16-23.59,33.86-49.32,38.34-20.12,3.5-42.8-3.51-52.49-6.76-13.51-4.52-40.91-11.42-44.27-31.89-4.07-24.84-12.89-38.42-15.38-52.15-1.58-8.73-4-36.53,6.88-47.14,12.93-12.62,15.42-33,27.76-31.77,24.25,2.53,32.85-28.85,47.06-29.24,12.23-.34,21.91,15.09,35.74,16.46,10.84,1.07,33.55,1.86,42.5,6.72,7.46,4.05,4.84,18.28,9.1,32.34,2.32,7.67,12.64,14,14,21.58,2.1,11.47,3.14,21.59,3.14,26.6C346.06,265.64,351.24,284.78,346.06,298.52Z"/></g><g id="Layer_4" data-name="Layer 4"><path class="cls-5" d="M423.66,217.13c-10.74-15.49-16.58-13-20.29-28.71-3.6-15.24,7.67-26.07,1.87-32.77-6.86-7.94-25,4.55-34.64-3.75-8.45-7.31,7.5-24.48-3.74-36.51-19.66-21-56.26-38.11-83.33-37.45-29.93.74-32.42,23.16-57.11,20.6-20-2.08-32.4-21.58-45.87-6.87-8.12,8.86-16.11,9.86-20.91,11.55-28.4,10-15.87,24.45-28.71,39.32-17.27,20-27.56,9.39-39.95,26.32s-4.08,29.77-8.74,72c-4,36-13,41.72-6.78,59.08,7.72,21.43,25.48,19.1,41.42,46.71,9.92,17.18,5.76,26.22,11.59,39.9,18.46,43.33,138.7,60.73,167.86,41.55,12.75-8.39,35.89-22.47,35.89-22.47C338,393,354.4,396.22,360,388.15c9-13,5-26.77,10.61-29.34,22.24-10.25,19-2.53,31.84-10.61,12.1-7.62,24.29-23.18,29.33-55.55C437.81,253.86,434.59,232.9,423.66,217.13ZM226.39,376.07c-11.13-3.72-62.79-47.17-65.56-64-3.36-20.45-16.52-30.38-18.57-41.68-1.3-7.19-10.84-52.65-1.89-61.39,10.64-10.4,32.28-43.14,42.44-42.08,20,2.08,36.05-19.24,47.75-19.56,10.07-.28,31.05-12.88,42.44-11.75,8.93.88,7.78,17.85,15.16,21.85,6.14,3.34,42,9.26,45.47,20.84,1.92,6.32,18.94,16.12,20.09,22.36,1.73,9.45,2.27,27.33,2.27,31.45,0,6.85.1,34.92-4.17,46.24-2.36,6.26-15.09,47.22-17.05,51.91-5.56,13.31-30.35,21.14-51.54,24.83C266.66,357.94,234.37,378.75,226.39,376.07Z"/></g><g id="Layer_2" data-name="Layer 2"><rect class="cls-6" x="277.29" y="78.47" width="10.86" height="57.09" rx="5.43"/><rect class="cls-6" x="115.23" y="128.87" width="10.86" height="57.09" rx="5.43" transform="translate(207.15 -21.07) rotate(63.32)"/><rect class="cls-6" x="384.28" y="227.45" width="10.86" height="57.09" rx="5.43" transform="translate(-75.46 288.01) rotate(-37.24)"/><rect class="cls-6" x="185.72" y="350.81" width="10.86" height="57.09" rx="5.43" transform="translate(609.56 306.03) rotate(106.8)"/><rect class="cls-6" x="101.34" y="250.26" width="10.86" height="57.09" rx="5.43" transform="translate(111.84 -19.7) rotate(21.93)"/><rect class="cls-6" x="329.46" y="333.13" width="10.86" height="57.09" rx="5.43" transform="translate(330.09 -131.21) rotate(42.24)"/><rect class="cls-7" x="434.05" y="243.48" width="10.86" height="57.09" rx="5.43" transform="translate(254.87 -210.74) rotate(37.32)"/><rect class="cls-7" x="169.8" y="90.22" width="10.86" height="57.09" rx="5.43"/><rect class="cls-7" x="222.72" y="399.06" width="10.86" height="57.09" rx="5.43" transform="translate(698.44 310.44) rotate(104.09)"/><rect class="cls-7" x="365.34" y="138.33" width="10.86" height="57.09" rx="5.43" transform="translate(-20.69 276.78) rotate(-39.91)"/><rect class="cls-7" x="134.94" y="289.78" width="10.86" height="57.09" rx="5.43" transform="translate(129.03 -29.39) rotate(21.93)"/><rect class="cls-7" x="72.79" y="204.66" width="10.86" height="57.09" rx="5.43" transform="translate(-76.12 41.68) rotate(-20.32)"/><rect class="cls-8" x="222.72" y="100.38" width="10.86" height="57.09" rx="5.43" transform="translate(64.65 -75.87) rotate(21.93)"/><rect class="cls-8" x="271.86" y="360" width="10.86" height="57.09" rx="5.43" transform="translate(-135.81 149.37) rotate(-24.42)"/><rect class="cls-8" x="115.23" y="190.6" width="10.86" height="57.09" rx="5.43" transform="translate(-127.69 249.25) rotate(-68.07)"/><rect class="cls-8" x="384.28" y="298.9" width="10.86" height="57.09" rx="5.43" transform="translate(278.28 -169.22) rotate(37.32)"/><rect class="cls-8" x="131.65" y="355.37" width="10.86" height="57.09" rx="5.43" transform="translate(-69.34 32.39) rotate(-10.77)"/><rect class="cls-8" x="329.46" y="90.22" width="10.86" height="57.09" rx="5.43" transform="translate(339.82 474.06) rotate(-110.32)"/></g></svg>