<svg xmlns="http://www.w3.org/2000/svg" xmlns:xlink="http://www.w3.org/1999/xlink" viewBox="0 0 512 512"><defs><style>.cls-1{fill:none;}.cls-2{fill:#bdccd2;}.cls-3{fill:#e3eaf0;}.cls-4{clip-path:url(#clip-path);}.cls-5{fill:#fff;}.cls-6{clip-path:url(#clip-path-2);}.cls-7{fill:#55927b;}.cls-8{clip-path:url(#clip-path-3);}.cls-9{fill:#8a9f7c;}.cls-10{fill:#c43c18;}.cls-11{fill:#f4a92d;}.cls-12{fill:#2b697d;}</style><clipPath id="clip-path"><path class="cls-1" d="M51.31,196.33c6.26,7,17.43,11.08,22,7.58s1.44-13.43,4.55-14.4,7.6,9.27,11.37,8.34,1.9-12.3,6.82-14.4c4.55-1.95,9.06,6.56,15.91,6.06,7.48-.54,15.21-11.62,15.16-21.22-.1-18.94-30.54-40.4-54.57-33.35-12,3.52-18.52,13-20.46,15.92C43.12,164.26,41,184.8,51.31,196.33Z"/></clipPath><clipPath id="clip-path-2"><path class="cls-1" d="M174.43,298.35c19.3-50.21,64.22-165.87,83.83-216.32a15.66,15.66,0,0,1,26.45-4.55L448.28,267.07a15.66,15.66,0,0,1-10.18,25.8L190.73,319.53A15.66,15.66,0,0,1,174.43,298.35Z"/></clipPath><clipPath id="clip-path-3"><ellipse class="cls-1" cx="326.81" cy="432.16" rx="347.12" ry="182.65"/></clipPath></defs><g id="Layer_1" data-name="Layer 1"><circle class="cls-2" cx="256" cy="256" r="256"/></g><g id="Layer_3" data-name="Layer 3"><path class="cls-3" d="M40.05,321.51C46.75,283,61.82,198.22,68.41,161.25a11.2,11.2,0,0,1,17.71-7l130.1,97a11.2,11.2,0,0,1-2.54,19.38L55.23,333.82A11.19,11.19,0,0,1,40.05,321.51Z"/><path class="cls-3" d="M174.43,298.35c19.3-50.21,64.22-165.87,83.83-216.32a15.66,15.66,0,0,1,26.45-4.55L448.28,267.07a15.66,15.66,0,0,1-10.18,25.8L190.73,319.53A15.66,15.66,0,0,1,174.43,298.35Z"/></g><g id="Layer_5" data-name="Layer 5"><g class="cls-4"><path class="cls-5" d="M40.05,321.51C46.75,283,61.82,198.22,68.41,161.25a11.2,11.2,0,0,1,17.71-7l130.1,97a11.2,11.2,0,0,1-2.54,19.38L55.23,333.82A11.19,11.19,0,0,1,40.05,321.51Z"/></g></g><g id="Layer_4" data-name="Layer 4"><g class="cls-6"><path class="cls-5" d="M202.52,106.26c-1.25,26.42,34.53,54.8,48.5,49.27,6.68-2.65,8.49-13.08,15.16-12.89,6.87.2,9.82,11.44,15.16,10.61s5.74-13.13,10.61-13.64c5.41-.57,9.11,14.2,14.4,13.64,4.43-.46,3.52-11,10.61-15.91,9.1-6.33,20.85,3.85,25.77,0,9.13-7.17-3-64.72-42.45-80.34C259.85,41,204,74.33,202.52,106.26Z"/></g></g><g id="Layer_7" data-name="Layer 7"><polygon class="cls-7" points="29.72 349.17 29.72 267.32 77.14 319.63 96.79 249.5 141.61 299.34 154.26 233.21 177.19 291.19 194.56 210.47 231.38 273 256 195.83 280.96 272.5 326.81 195.83 353.72 263.9 394.89 205.19 406.01 278.68 443.53 217.29 461.72 291.19 495.82 249.5 495.82 324.16 202.48 325.3 29.72 349.17"/><path class="cls-7" d="M52.45,330.6c-.5-2.27-4.29-63.16-4.29-63.16l43.2,50.28,28.8-63.92,26,46.74-2.27-49.77,34.86,35.37L99.69,322.77Z"/><path class="cls-7" d="M207.06,274.26c.26-.75,7.08-64.42,7.08-64.42s16.42,30.32,16.42,29.31S239.15,202,239.15,202l25.77,38.91L248,269.21Z"/><polygon class="cls-7" points="266.43 259.61 291.95 193.67 331.61 261.13 354.1 223.23 372.54 262.39 409.17 226.52 409.17 262.39 428.62 218.18 443.02 274.26 271.74 284.62 266.43 259.61"/><path class="cls-7" d="M458.43,272.5c0-.26,20.46-36.89,20.46-36.89l7.84,45.22Z"/><path class="cls-5" d="M390.47,62.68C381.1,56.2,361.89,60,353.72,71c-7.52,10.14-1.7,21-9.48,26.15-7,4.65-15.66-1.6-19.32,3-3.07,3.88-.3,12.4,4.54,17.43,6.53,6.77,16.42,6.79,22.74,6.82,24.78.13,56.89.29,73.52,1.14,22.2,1.13,34.37,4.37,37.13-1.14,2-4.07-1.74-11.56-7.2-15.16-10.32-6.79-22.35,3.14-28.8-3-5.47-5.24,1.47-14.08-4.54-21.22-5.46-6.47-13.42-1.89-22.36-9.47C393.62,70.2,395.72,66.31,390.47,62.68Z"/></g><g id="Layer_2" data-name="Layer 2"><g class="cls-8"><circle class="cls-9" cx="256" cy="256" r="256"/></g></g><g id="Layer_6" data-name="Layer 6"><path class="cls-5" d="M102.47,106.77c32.78-.37,84.18-9.93,107.12-4.55a18,18,0,0,0,9.85-.25c6-2,12.67-8.31,11.88-14.65-1-7.84-13-13.43-20-11.63-1.13.3-2.24.82-3.29.26-3.06-1.63.52-9.13-1.51-14.66-3.62-9.83-26-16-37.39-8.08-5.95,4.1-12.5,14.46-15.66,19.45-2.61,4.13-3.62,6.31-6.07,6.82-5.31,1.11-8-7.63-18.19-11.62a28,28,0,0,0-17.18-.75c-8.4,2.19-17.3,8.78-16.67,14.14.29,2.48,2.43,3,2.53,6.07a8.94,8.94,0,0,1-5.06,8.08c-2.31,1-3.15-.25-7.58.25-3.1.36-6,.68-7.32,2.78a6.73,6.73,0,0,0,1.26,8.09c2.16,1.83,4.94.76,11.37.25C95.25,106.4,95.12,106.85,102.47,106.77Z"/></g><g id="Layer_8" data-name="Layer 8"><path class="cls-10" d="M366,314c-2-4.13,4-12.59,11.61-14.83,6.28-1.85,14.69.25,15.8,4.51,1.06,4.08-4.86,9-9.19,11.13C377.64,318,367.94,318,366,314Z"/><path class="cls-10" d="M365.19,311.71c-4.32,1.45-5.4,9.2-4.34,14.41,1.5,7.38,8.28,14.42,12.63,13.22,4.65-1.28,7.2-12.22,3.35-19.73C374.57,315.18,369.27,310.35,365.19,311.71Z"/><path class="cls-10" d="M363.79,309.89c-5.26-1.09-7.92-10.08-6.71-16.78,1.38-7.69,8.36-15.16,13.42-14,5.38,1.23,8.51,12.24,5.52,20.33C374.05,304.76,368.65,310.89,363.79,309.89Z"/><path class="cls-10" d="M362.43,309.56c-2,4-13,4.74-19.14-.79-4.5-4-6.66-11.63-4-14.61,3.13-3.42,12.43-.38,17.76,4.54C359.55,301,364.05,306.28,362.43,309.56Z"/><path class="cls-10" d="M360.83,311.91c-3.53-3.77-11.43-1.35-15.79,2-4.14,3.15-8.07,9.37-6.12,13,2.45,4.61,14.28,5.33,19.93-.79C362.4,322.29,364,315.28,360.83,311.91Z"/><ellipse class="cls-11" cx="362.77" cy="310.44" rx="8.24" ry="6.65"/><path class="cls-10" d="M126.79,341c1.09,4.54-7.41,11.1-16.08,11.17-7.16.07-15.61-4.27-15.72-8.71-.12-4.24,7.42-7.39,12.57-8.25C115.36,334,125.72,336.57,126.79,341Z"/><path class="cls-10" d="M123.25,339.47c4.14-1.89,4.41-9.71,2.81-14.78-2.27-7.19-9.76-13.48-14-11.83-4.49,1.76-5.88,12.9-1.27,20C113.56,337,119.33,341.25,123.25,339.47Z"/><path class="cls-10" d="M124.83,341.14c5.34.53,8.93,9.19,8.43,16-.57,7.79-6.74,15.95-11.88,15.34-5.49-.66-9.75-11.28-7.62-19.64C115.16,347.31,119.88,340.65,124.83,341.14Z"/><path class="cls-10" d="M129.24,342c1.55-4.2,12.42-6.07,19.13-1.22,4.89,3.55,7.83,10.87,5.45,14.11-2.75,3.74-12.32,1.69-18.14-2.65C133,350.21,128,345.39,129.24,342Z"/><path class="cls-10" d="M127.56,338.82c3.9,3.38,11.51.14,15.5-3.62,3.78-3.56,7-10.15,4.72-13.59-2.92-4.33-14.75-3.81-19.74,2.87C124.92,328.66,124.08,335.79,127.56,338.82Z"/><ellipse class="cls-11" cx="125.78" cy="340.48" rx="8.24" ry="6.65" transform="translate(-34.92 15.02) rotate(-6)"/><path class="cls-10" d="M274.1,422.62c5.06,2.21,6.24,14.65,1.06,22.67-4.29,6.63-13.61,11.33-18,8.3-4.18-2.89-2.65-12-.36-17.38C260.3,428.12,269.12,420.45,274.1,422.62Z"/><path class="cls-10" d="M269.27,421c-.43-5.47-9.19-9-15.59-9.26-9.07-.39-19.28,5.51-19.13,10.94.15,5.81,12.2,12,22.11,9.64C262.49,431,269.68,426.15,269.27,421Z"/><path class="cls-10" d="M271.81,419.87c2.79-5.83,14.09-6.33,21.57-3,8.59,3.85,15.31,14.19,12.5,19.76-3,6-16.79,6.42-25.38.57C274.84,433.37,269.22,425.28,271.81,419.87Z"/><path class="cls-10" d="M272.59,418.39c-4.11-3.48-1.78-16.57,6.48-22.17,6-4.08,15.54-4.41,18.23-.38,3.1,4.65-3.16,14.65-10.46,19.46C283.48,417.51,276,421.23,272.59,418.39Z"/><path class="cls-10" d="M270.31,415.82c5.43-3,4.89-13,2.27-19-2.48-5.75-8.61-12.15-13.46-10.93-6.1,1.53-10.38,15.15-4.86,23.54C257.71,414.65,265.45,418.53,270.31,415.82Z"/><ellipse class="cls-11" cx="271.46" cy="418.53" rx="9.93" ry="8.01" transform="translate(-42.29 30.69) rotate(-6)"/><path class="cls-10" d="M254.84,280.05c-1.47,4.34-11.68,6.17-18.67,2.44-5.77-3.09-10.3-10.48-8.1-14.3,2.1-3.65,9.77-3,14.35-1.49C249.34,269,256.29,275.78,254.84,280.05Z"/><path class="cls-10" d="M255.12,282c4.09,2,10.3-2.77,13.2-7.22,4.1-6.32,4.2-16.1.26-18.29-4.22-2.34-13.7,3.67-16.23,11.72C250.86,273,251.25,280.14,255.12,282Z"/><path class="cls-10" d="M250.73,283.83c2.54,3.8-1.22,10.87-6,14.23-5.45,3.85-14.18,4.22-16.57.5-2.54-4,2.15-12.56,8.81-15.69C241.4,280.8,248.36,280.3,250.73,283.83Z"/><path class="cls-10" d="M254.29,284.31c4.22-1.47,12.58,5.72,13.1,14,.37,6-3.41,13-7.43,13.18-4.63.26-9.13-8.44-9.48-15.69C250.32,292.46,250.84,285.51,254.29,284.31Z"/><path class="cls-10" d="M257.09,283.76c-.14,5.15,7.2,9,12.64,9.66,5.15.65,12.31-1,13.49-5,1.49-5-6.44-13.81-14.76-13.41C263.24,275.26,257.21,279.15,257.09,283.76Z"/><ellipse class="cls-11" cx="254.67" cy="283.44" rx="8.24" ry="6.65" transform="translate(-28.25 28.19) rotate(-6)"/><path class="cls-10" d="M395.55,387.42c-1.13,3.32-8.93,4.73-14.27,1.87-4.42-2.36-7.88-8-6.2-10.93s7.48-2.31,11-1.14C391.35,379,396.66,384.16,395.55,387.42Z"/><path class="cls-10" d="M395.77,388.94c3.12,1.52,7.87-2.12,10.09-5.53,3.13-4.83,3.21-12.31.2-14-3.23-1.79-10.48,2.8-12.41,9C392.51,382,392.81,387.49,395.77,388.94Z"/><path class="cls-10" d="M392.41,390.31c1.94,2.91-.93,8.32-4.56,10.89-4.16,2.94-10.84,3.23-12.66.38-1.95-3,1.63-9.6,6.73-12C385.28,388,390.6,387.62,392.41,390.31Z"/><path class="cls-10" d="M395.13,390.68c3.23-1.12,9.62,4.38,10,10.69.28,4.61-2.61,9.92-5.68,10.08-3.54.19-7-6.45-7.25-12C392.1,396.91,392.49,391.6,395.13,390.68Z"/><path class="cls-10" d="M397.27,390.26c-.1,3.94,5.51,6.86,9.67,7.39,3.94.5,9.41-.78,10.31-3.82,1.14-3.83-4.92-10.56-11.29-10.26C402,383.76,397.36,386.74,397.27,390.26Z"/><ellipse class="cls-11" cx="395.42" cy="390.01" rx="6.3" ry="5.09" transform="translate(-38.63 43.5) rotate(-6)"/><path class="cls-12" d="M151.18,433.46c-2,2.77-9.58,1.93-13.76-2.18-3.44-3.4-5.1-9.59-2.74-11.84s7.56-.09,10.48,2C149.59,424.49,153.1,430.74,151.18,433.46Z"/><path class="cls-12" d="M152.87,434.05c3,1.48,7.62-2,9.76-5.34,3-4.67,3.11-11.9.2-13.52-3.12-1.73-10.13,2.71-12,8.67C149.73,427.36,150,432.66,152.87,434.05Z"/><path class="cls-12" d="M149.63,435.39c1.88,2.81-.9,8-4.41,10.52-4,2.85-10.48,3.12-12.24.37-1.89-2.94,1.58-9.28,6.51-11.6C142.73,433.15,147.88,432.78,149.63,435.39Z"/><path class="cls-12" d="M150,436.47c2.95-1.48,9.78,3,10.95,9,.86,4.39-1.25,9.83-4.17,10.38-3.37.63-7.51-5.31-8.47-10.59C147.84,442.83,147.56,437.69,150,436.47Z"/><path class="cls-12" d="M154.33,435.33c-.1,3.82,5.32,6.64,9.35,7.15,3.81.48,9.1-.75,10-3.7,1.1-3.7-4.76-10.21-10.91-9.91C158.88,429.05,154.42,431.93,154.33,435.33Z"/><ellipse class="cls-11" cx="152.54" cy="435.1" rx="6.09" ry="4.92" transform="translate(-44.67 18.34) rotate(-6)"/><path class="cls-12" d="M452.34,309.87c2.43-3.76,12.54-3.07,18.28,2.14,4.73,4.29,7.27,12.37,4.27,15.47s-10,.54-13.95-2C454.93,321.63,450,313.57,452.34,309.87Z"/><path class="cls-12" d="M450.06,309.18c-4.07-1.78-9.94,3.13-12.59,7.6-3.75,6.33-3.45,15.88.49,17.86,4.21,2.11,13.22-4.14,15.36-12.1C454.58,317.85,453.91,310.87,450.06,309.18Z"/><path class="cls-12" d="M454.28,307.25c-2.64-3.61.74-10.67,5.24-14.14,5.16-4,13.66-4.7,16.15-1.15,2.64,3.77-1.59,12.34-8,15.67C463.5,309.82,456.73,310.6,454.28,307.25Z"/><path class="cls-12" d="M453.76,305.83c-3.81,2.13-13.07-3.4-14.95-11.27-1.37-5.74,1.11-13,4.94-13.93,4.42-1,10.21,6.6,11.76,13.52C456.22,297.32,456.88,304.1,453.76,305.83Z"/><path class="cls-12" d="M448.07,307.57c-.08-5-7.39-8.46-12.73-8.91-5.06-.44-12,1.49-13,5.42-1.25,4.95,6.85,13.22,15,12.5C442.41,316.12,448.14,312.08,448.07,307.57Z"/><ellipse class="cls-11" cx="450.44" cy="307.79" rx="8.05" ry="6.5" transform="translate(-40.06 68.96) rotate(-8.38)"/><path class="cls-12" d="M245.78,345.43c-3.49,4.33-15.79,3.94-22.11-1.71-5.22-4.66-7.23-13.67-3.14-17.27,3.91-3.45,12.31-1,16.83,1.72C244.21,332.28,249.22,341.17,245.78,345.43Z"/><path class="cls-12" d="M248.74,346c4.3,2.1,10.84-2.92,13.89-7.61,4.32-6.65,4.43-16.95.28-19.25-4.44-2.47-14.42,3.86-17.08,12.34C244.26,336.45,244.67,344,248.74,346Z"/><path class="cls-12" d="M243.83,350.69c3.24,4.56-.43,12.28-5.56,15.69-5.88,3.91-15.81,3.57-18.86-.89-3.26-4.74,1.34-14.1,8.68-17.09C232.92,346.43,240.82,346.47,243.83,350.69Z"/><path class="cls-12" d="M243,350.78c4.69-2.24,15.93,5.15,18.14,14.73,1.6,7-1.52,15.56-6.21,16.3-5.41.86-12.39-8.74-14.21-17.16C239.89,360.78,239.16,352.61,243,350.78Z"/><path class="cls-12" d="M251,351.48c-.5,5.8,7.46,9.58,13.5,10,5.72.39,13.85-2,15.44-6.51,2-5.71-6.28-15.05-15.62-14.05C258.46,341.53,251.44,346.31,251,351.48Z"/><ellipse class="cls-11" cx="248.27" cy="347.46" rx="8.68" ry="7" transform="translate(-34.98 27.87) rotate(-6)"/><path class="cls-12" d="M343.66,452.64c-2,2.77-9.57,1.93-13.75-2.19-3.44-3.39-5.11-9.58-2.75-11.83s7.57-.09,10.49,1.95C342.07,443.67,345.59,449.92,343.66,452.64Z"/><path class="cls-12" d="M345.36,453.23c3,1.48,7.62-2.05,9.76-5.34,3-4.67,3.11-11.9.19-13.52-3.11-1.73-10.13,2.71-12,8.67C342.22,446.54,342.5,451.84,345.36,453.23Z"/><path class="cls-12" d="M342.11,454.56c1.89,2.82-.89,8-4.4,10.53-4,2.85-10.48,3.12-12.25.36-1.88-2.93,1.59-9.28,6.51-11.59C335.22,452.33,340.37,452,342.11,454.56Z"/><path class="cls-12" d="M342.46,455.65c3-1.49,9.77,3,11,9,.85,4.38-1.25,9.83-4.18,10.38-3.37.63-7.5-5.31-8.46-10.59C340.33,462,340.05,456.87,342.46,455.65Z"/><path class="cls-12" d="M346.82,454.51c-.1,3.82,5.32,6.63,9.34,7.15,3.81.48,9.11-.76,10-3.7,1.1-3.7-4.76-10.21-10.92-9.92C351.37,448.23,346.91,451.11,346.82,454.51Z"/><ellipse class="cls-11" cx="345.03" cy="454.28" rx="6.09" ry="4.92" transform="translate(-45.62 38.58) rotate(-6)"/></g></svg>